<svg xmlns="http://www.w3.org/2000/svg" version="1.1" xmlns:xlink="http://www.w3.org/1999/xlink" xmlns:svgjs="http://svgjs.com/svgjs" width="512" height="512" x="0" y="0" viewBox="0 0 511.999 511.999" style="enable-background:new 0 0 512 512" xml:space="preserve" class=""><g><circle cx="255.985" cy="255.999" r="62.535" style="" fill="#f4b2b0" data-original="#f4b2b0" class=""></circle><path d="M255.987 333.182c-42.558 0-77.181-34.624-77.181-77.182s34.624-77.181 77.181-77.181 77.181 34.623 77.181 77.181-34.625 77.182-77.181 77.182zm0-125.072c-26.407 0-47.89 21.483-47.89 47.89s21.483 47.892 47.89 47.892 47.89-21.483 47.89-47.892c0-26.407-21.483-47.89-47.89-47.89z" style="" fill="#b3404a" data-original="#b3404a" class=""></path><path d="M255.987 377.567c-66.4 0-120.33-53.244-121.511-119.362-29.109-50.348-67.137-116.127-78.916-136.502-86.177 136.562-9.5 256.395-9.5 256.395C122.823 499.519 239.043 497.35 239.043 497.35s49.58-85.233 79.508-137.111c-18.28 10.995-39.681 17.328-62.564 17.328z" style="" fill="#f4b2b0" data-original="#f4b2b0" class=""></path><path d="M497.568 244.283c-8.093-.157-14.762 6.289-14.909 14.377-.684 37.669-10.76 75.236-29.983 111.725-.578 1.11-55.938 104.535-187.934 111.896 16.322-28.088 44.567-76.734 64.699-111.612 38.841-24.945 62.757-68.364 62.757-114.668 0-33.911-12.756-66.185-34.802-90.843 53.884.041 108.21.146 114.796.16a14.563 14.563 0 0 0 7.557-1.674c4.946-2.622 7.768-7.673 7.785-12.905l.001-.035c0-.107-.013-.209-.015-.315a13.89 13.89 0 0 0-.053-1.078c-.025-.269-.07-.533-.11-.798-.029-.196-.05-.391-.088-.586a14.627 14.627 0 0 0-.29-1.211c-.013-.047-.022-.095-.037-.142a14.51 14.51 0 0 0-1.365-3.191C444.41 66.023 384.143 31.151 340.79 15.523 293.653-1.469 256.272-.008 254.78.057 176.498 3.15 123.182 33.869 92.239 59.093c-31.873 25.984-47.186 51.489-49.371 55.295C-3.839 188.711-4.023 258.329 4.076 303.685c8.808 49.328 28.801 80.983 29.605 82.239 32.17 50.887 76.494 88.704 128.18 109.361 39.803 15.908 70.935 16.713 76.771 16.713 0 0 8.267-.009 11.18-.009 81.721-.003 138.524-32.937 172.279-61.318 38.385-32.274 55.85-65.381 56.537-66.705 21.34-40.506 32.551-82.487 33.317-124.775.147-8.085-6.291-14.761-14.377-14.908zM111.782 80.958c39.804-32.054 88.304-49.426 144.199-51.636.338-.013 34.118-1.176 76.018 14.169 48.032 17.592 86.699 48.658 115.245 92.487-31.518-.056-86.27-.138-130.895-.129a14.644 14.644 0 0 0-14.15 10.876 14.648 14.648 0 0 0 6.866 16.475c33.213 19.042 53.843 54.602 53.843 92.8 0 37.819-20.325 73.2-53.041 92.339-.025.015-.045.032-.07.047a106.738 106.738 0 0 1-53.81 14.535c-57.893 0-105.836-47.093-106.87-104.979 0-.013-.003-.025-.003-.037l-.016-.521c-.016-.46-.034-.92-.034-1.384 0-58.956 47.965-106.921 106.922-106.921 8.087 0 14.645-6.557 14.645-14.645s-6.558-14.645-14.645-14.645c-60.693 0-112.231 39.901-129.784 94.847l-53.479-92.503c6.195-8.848 18.913-24.952 39.059-41.175zM58.413 370.234c-.18-.284-18.1-28.951-25.714-72.896-8.726-50.356-1.062-99.344 22.775-145.957 16.136 28.014 44.263 76.807 64.536 111.764 1.76 34.102 16.022 65.901 40.493 89.975 25.622 25.209 59.532 39.091 95.483 39.091 9.443 0 18.813-.989 27.965-2.904-21.06 36.399-42.529 73.503-53.775 92.936-27.027-2.424-112.069-17.587-171.763-112.009z" style="" fill="#b3404a" data-original="#b3404a" class=""></path></g></svg>