<svg xmlns="http://www.w3.org/2000/svg" version="1.1" xmlns:xlink="http://www.w3.org/1999/xlink" xmlns:svgjs="http://svgjs.com/svgjs" width="512" height="512" x="0" y="0" viewBox="0 0 53 53" style="enable-background:new 0 0 512 512" xml:space="preserve" class=""><g><path fill="#9ea9c9" d="m33.008 4.098-17.36 46.31-2.6-1.5c-.23-.14-.38-.43-.38-.84l-.1-34.11c0-.84.58-1.85 1.31-2.27 2.72-1.78 5.41-3.45 8.06-4.97 2.55-1.48 5.07-2.83 7.54-4.04.37-.21.7-.23.94-.09z" data-original="#9ea9c9" class=""></path><path fill="#4c5c75" d="M24.533 8.219a124.18 124.18 0 0 1 7.547-4.034c.725-.418 1.314-.082 1.316.75l.097 34.112c.002.832-.583 1.846-1.308 2.265a156.88 156.88 0 0 1-7.86 4.86 134.846 134.846 0 0 1-7.745 4.15c-.724.418-1.313.081-1.316-.75l-.096-34.112c-.003-.833.583-1.847 1.307-2.265a168.41 168.41 0 0 1 8.058-4.976z" data-original="#4c5c75" class=""></path><path fill="#ffffff" d="M32.85 39.288c0 .49-.35 1.11-.77 1.35l-15.6 9.01c-.11.06-.22.1-.3.1-.25 0-.28-.29-.28-.42l-.01-3.27-.03-10.61-.05-20.24c-.01-.48.35-1.09.77-1.35l2.63-1.51.08.2c.13.31.39.49.71.49.19 0 .38-.06.57-.17l7.63-4.41c.49-.28.92-.86 1.07-1.47l.14-.53 2.77-1.61c.11-.06.2-.09.29-.09.25 0 .29.3.29.42l.05 20.48.03 10.62z" data-original="#ffffff" class=""></path><ellipse cx="21.001" cy="11.546" fill="#4c5c75" rx=".51" ry=".295" transform="rotate(-59.87 20.987 11.544)" data-original="#4c5c75" class=""></ellipse><path fill="#9ea9c9" d="M22.588 10.214c.2-.115.363-.023.363.207 0 .229-.16.509-.36.624-.2.116-.363.023-.364-.206 0-.23.161-.51.361-.625zM27.713 7.369v.645L23.67 10.35l-.001-.645z" data-original="#9ea9c9" class=""></path><path fill="#ffffff" d="M30.317 4.404a.463.463 0 0 1-.174.146c-.382.223-1.001.223-1.376 0a.64.64 0 0 1-.181-.146c-.195-.208-.132-.473.174-.653.375-.223 1.001-.223 1.383 0 .306.173.37.438.174.653z" data-original="#ffffff" class=""></path><path fill="#1d2943" d="M30.317 4.404a.463.463 0 0 1-.174.146c-.382.223-1.001.223-1.376 0a.64.64 0 0 1-.181-.146.525.525 0 0 1 .174-.146c.375-.215 1.001-.215 1.383 0 .077.042.14.09.174.146z" data-original="#1d2943"></path><path fill="#111d33" d="m14.654 18.69-.007 2.837c-.002.18-.064.305-.167.365l-.427.25c.1-.059.165-.184.165-.364l.009-2.838c0-.357-.25-.791-.563-.971-.156-.09-.296-.097-.399-.04l.43-.252c.102-.056.242-.049.398.04.311.18.563.617.561.972z" data-original="#111d33" class=""></path><path fill="#4c5c75" d="M13.665 17.97c-.156-.09-.296-.098-.4-.042-.101.06-.164.185-.165.363l-.008 2.837c0 .358.25.793.56.972.157.09.297.1.4.042.102-.058.166-.184.166-.364l.008-2.837c.001-.357-.25-.792-.561-.972z" data-original="#4c5c75" class=""></path><path fill="#111d33" d="m14.64 23.877-.008 2.838c-.001.18-.064.304-.167.363l-.427.251c.101-.06.165-.183.165-.363l.009-2.838c0-.357-.25-.792-.563-.972-.154-.09-.294-.098-.398-.041l.429-.25c.102-.058.242-.049.398.04.311.18.563.615.561.972z" data-original="#111d33" class=""></path><path fill="#4c5c75" d="M13.65 23.156c-.156-.09-.296-.098-.399-.04-.102.058-.165.184-.166.362l-.008 2.837c0 .358.25.793.561.972.156.09.297.1.4.042.102-.06.165-.184.165-.364l.008-2.837c.001-.357-.25-.792-.561-.972z" data-original="#4c5c75" class=""></path><path fill="#5094ff" d="m31.769 19.388-5.09 8.8-.74-.43c-.15-.09-.25-.29-.25-.56l-.01-4.45c0-.55.38-1.21.86-1.49l3.88-2.24c.24-.14.45-.15.61-.06z" data-original="#5094ff"></path><path fill="#57b3fe" d="M31.153 19.448c.477-.276.862-.052.864.497l.012 4.448c.002.548-.38 1.215-.858 1.49l-3.88 2.24c-.477.276-.861.052-.863-.497l-.013-4.448c-.001-.548.381-1.215.858-1.49z" data-original="#57b3fe"></path><path fill="#ffffff" d="M31.098 23.138c0 .474-.333 1.052-.745 1.289l-2.086 1.2c-.412.237-.745.053-.745-.429 0-.36.192-.771.464-1.06.027-.421.325-.92.693-1.131a.776.776 0 0 1 .149-.07c.149-.35.412-.675.718-.85.482-.28.868-.053.868.5v.096c.377-.184.675.008.684.455z" data-original="#ffffff" class=""></path><path fill="#566df9" d="m23.568 33.238-5.09 8.8-.74-.43c-.15-.09-.25-.28-.25-.55l-.01-4.46c0-.54.38-1.21.86-1.49l3.88-2.24c.24-.13.45-.15.61-.06z" data-original="#566df9"></path><path fill="#8fabfe" d="M19.094 41.977c-.477.276-.862.056-.863-.492l-.013-4.453c-.002-.548.38-1.215.858-1.49l3.88-2.24c.477-.276.861-.052.863.496l.013 4.453c.001.549-.381 1.21-.858 1.486z" data-original="#8fabfe"></path><path fill="#e93565" d="m23.539 24.138-5.08 8.79-.74-.43c-.16-.09-.25-.28-.25-.55l-.01-4.45c-.01-.55.38-1.22.85-1.49l3.88-2.24c.24-.14.46-.15.61-.06z" data-original="#e93565"></path><path fill="#f45170" d="M22.93 24.195c.477-.275.862-.05.863.497l.013 4.448c.001.549-.38 1.216-.858 1.491l-3.88 2.24c-.477.276-.862.051-.863-.497l-.013-4.448c-.001-.548.38-1.215.858-1.49z" data-original="#f45170" class=""></path><path fill="#7e5af2" d="m23.519 15.028-5.09 8.79-.74-.43c-.15-.09-.25-.28-.25-.55l-.01-4.45c0-.55.38-1.22.86-1.49l3.88-2.24c.24-.14.45-.15.61-.06z" data-original="#7e5af2"></path><path fill="#b28afd" d="M22.904 15.084c.477-.275.862-.05.863.497l.013 4.453c.002.549-.38 1.21-.858 1.486l-3.88 2.24c-.477.276-.862.057-.863-.492l-.013-4.453c-.001-.548.381-1.215.858-1.49z" data-original="#b28afd" class=""></path><path fill="#dedffb" d="m31.789 28.498-5.08 8.79-.74-.43c-.16-.09-.25-.28-.25-.55l-.02-4.45c0-.55.38-1.22.86-1.49l3.88-2.24c.24-.14.46-.15.61-.06z" data-original="#dedffb"></path><path fill="#f3f1fc" d="M31.179 28.553c.477-.275.862-.05.863.498l.013 4.453c.002.548-.38 1.21-.858 1.486l-3.88 2.24c-.477.275-.862.056-.863-.493l-.013-4.453c-.001-.548.38-1.215.858-1.49z" data-original="#f3f1fc"></path><path fill="#febc1f" d="m31.739 10.278-5.09 8.8-.73-.43c-.16-.09-.25-.28-.25-.56l-.02-4.45c0-.55.38-1.22.86-1.49l3.88-2.24c.24-.14.46-.15.61-.06z" data-original="#febc1f" class=""></path><path fill="#ffd06c" d="M31.127 10.336c.477-.275.862-.05.864.498l.012 4.453c.002.548-.38 1.21-.858 1.486l-3.88 2.24c-.476.275-.861.056-.863-.492l-.012-4.453c-.002-.549.38-1.216.857-1.492z" data-original="#ffd06c"></path><path fill="#f45170" d="M29.243 31.004c.905-.522 1.647-.103 1.65.939.002 1.042-.734 2.314-1.639 2.837-.906.522-1.647.103-1.65-.939s.734-2.314 1.64-2.837z" data-original="#f45170" class=""></path><path fill="#ffffff" d="m28.704 32.232 1.43.147-1.425 1.798zM20.032 27.937c.056-.032.112-.037.151-.005.072.053.066.203-.02.335l-.755 1.187.762.306c.083.035.095.174.023.315a.413.413 0 0 1-.155.168c-.043.025-.09.036-.13.021l-.936-.384c-.043-.02-.069-.068-.069-.135 0-.07.025-.147.068-.213l.93-1.463a.397.397 0 0 1 .131-.132zM21.664 26.246a.19.19 0 0 1 .085-.027c.1-.005.144.107.098.25l-1.331 4.113a.439.439 0 0 1-.184.238l-.083.027c-.1.009-.145-.107-.098-.246l1.331-4.116a.44.44 0 0 1 .182-.239zM21.957 26.826c.048-.027.095-.036.133-.02l.936.385c.043.016.069.064.069.134a.425.425 0 0 1-.068.214l-.935 1.464a.379.379 0 0 1-.13.129c-.057.033-.111.04-.15.009-.073-.058-.063-.21.02-.34l.755-1.182-.76-.313c-.082-.035-.094-.174-.022-.31a.412.412 0 0 1 .152-.17z" data-original="#ffffff" class=""></path><path fill="#4c5c75" d="M33.01 39.318c0 .5-.35 1.13-.78 1.38l-15.9 9.18a.74.74 0 0 1-.31.1c-.25 0-.28-.29-.28-.42l-.01-2.75L33 36.838z" data-original="#4c5c75" class=""></path><path fill="#9ea9c9" d="M25.229 42.548c.484-.28.884-.062.886.495.001.566-.396 1.245-.88 1.524L23.43 45.61c-.484.28-.884.062-.886-.505-.001-.556.396-1.235.88-1.514z" data-original="#9ea9c9" class=""></path><path fill="#ffffff" d="m22.677 18.742-.345.27a2.694 2.694 0 0 1-.164.559l.2.212-.313.543-.063.108-.016-.004-.27-.06c-.121.157-.259.3-.403.424l-.06.43-.53.306-.061-.36a.989.989 0 0 1-.407.043l-.137.19-.101.14-.047.064-.376-.216.2-.444a.831.831 0 0 1-.14-.264 1.163 1.163 0 0 1-.03-.103l-.343.128-.001-.54V20.1l.048-.038.294-.232a2.81 2.81 0 0 1 .167-.56l-.202-.213.374-.648.105.023.068.015.113.025c.126-.16.26-.3.406-.425l.06-.43.529-.306.062.36a.942.942 0 0 1 .405-.042l.282-.39.063.031.318.18-.199.443c.076.098.134.22.168.368l.055-.02.092-.034.197-.073zm-1.701 1.542c.414-.239.75-.82.75-1.3-.002-.477-.341-.67-.755-.43-.418.24-.753.823-.751 1.3.001.479.338.671.756.43" data-original="#ffffff" class=""></path><path fill="#5ec363" d="m10.042 14.454-1.33-.773-.975-1.274 1.828-.057z" data-original="#5ec363"></path><path fill="#72d561" d="m13.849 3.428-7 10.72-.97-.56c-.1-.06-.16-.16-.19-.31-.34-1.92-.56-3.84-.67-5.27-.03-.4.23-.95.64-1.22 2.17-1.42 4.44-2.73 6.76-3.91.18-.09.34-.09.45-.02z" data-original="#72d561" class=""></path><path fill="#78e75a" d="M10.016 5.276a67.832 67.832 0 0 1 3.384-1.83c.382-.191.67.024.642.48-.123 1.99-.335 4-.634 6.029-.058.39-.318.808-.635 1.009-.59.376-1.178.739-1.763 1.09l-.968 2.4-.976-1.275c-.59.33-1.177.646-1.76.947-.32.162-.583.047-.642-.279a52.613 52.613 0 0 1-.668-5.275c-.031-.42.255-.97.638-1.22a74.556 74.556 0 0 1 3.382-2.076z" data-original="#78e75a" class=""></path><path fill="#ffffff" d="M11.579 8.34c-.137-.109-.333-.091-.582.052a1.47 1.47 0 0 0-.58.618 1.817 1.817 0 0 0-.201.836c0 .29.07.492.205.6.138.11.333.092.582-.051.248-.144.444-.352.58-.618.134-.266.202-.547.201-.837 0-.288-.07-.49-.205-.6zm-.894 1.684c-.074-.073-.114-.202-.114-.383-.001-.181.037-.354.112-.512a.778.778 0 0 1 .315-.356c.134-.078.24-.08.316-.01.076.074.114.201.115.382 0 .182-.037.355-.113.514a.786.786 0 0 1-.314.356c-.135.078-.24.08-.317.009zM11.17 6.434a.394.394 0 0 1-.035.147L9.2 11.287a.473.473 0 0 1-.066.113.303.303 0 0 1-.086.08c-.044.025-.084.03-.117.013-.035-.018-.051-.055-.051-.11 0-.035.007-.072.025-.113l1.95-4.736a.343.343 0 0 1 .142-.177c.05-.03.091-.036.125-.024.032.013.048.046.048.1zM9.616 7.394c-.136-.11-.332-.093-.58.05-.25.145-.445.353-.58.62a1.814 1.814 0 0 0-.203.835c.001.29.071.491.207.601.136.11.333.092.58-.053a1.46 1.46 0 0 0 .58-.617 1.82 1.82 0 0 0 .203-.837c0-.289-.07-.49-.207-.6zm-.892 1.683c-.076-.073-.114-.2-.115-.383 0-.182.037-.354.113-.513a.777.777 0 0 1 .315-.355c.134-.078.24-.081.316-.01.075.073.114.201.114.383s-.038.354-.111.513c-.075.158-.181.277-.316.355s-.241.081-.316.01z" data-original="#ffffff" class=""></path><path fill="#bf7d5a" d="m47.649 4.068-11.3 14.91-1.16-.68c-.2-.12-.33-.36-.33-.7l-.02-6.6c0-.7.5-1.55 1.1-1.9l9.75-5.63c.31-.18.59-.19.79-.08z" data-original="#bf7d5a"></path><path fill="#dba660" d="M46.853 4.148c.612-.354 1.11-.07 1.112.621l.019 6.602c.002.691-.493 1.548-1.105 1.902l-9.75 5.628c-.601.348-1.1.064-1.101-.628l-.019-6.6c-.002-.692.493-1.55 1.095-1.897z" data-original="#dba660"></path><path fill="#ffffff" d="M36.641 18.597c-.14 0-.16-.203-.16-.325l-.02-6.601c-.001-.533.405-1.235.869-1.503l9.749-5.629a.566.566 0 0 1 .273-.092c.139 0 .16.203.16.324l.02 6.6c.001.533-.41 1.239-.88 1.51l-9.749 5.629a.543.543 0 0 1-.262.087z" data-original="#ffffff" class=""></path><path fill="#e3e7f0" d="m41.87 9.49 5.032-2.904-.002-.672-5.03 2.904zM41.87 11.018l5.036-2.907-.002-.672-5.034 2.906zM41.87 14.073l2.81-1.623-.001-.672L41.87 13.4zM41.87 12.546l5.04-2.91-.001-.673-5.039 2.91z" data-original="#e3e7f0"></path><path fill="#78e75a" d="m39.274 13.247 1.875-1.081c-.043 1.195-.879 2.61-1.903 3.203-.482.278-.937.336-1.292.166z" data-original="#78e75a" class=""></path><path fill="#df3260" d="M39.316 10.93c.479-.254.928-.288 1.27-.092.345.195.542.595.562 1.135l-1.826 1.055z" data-original="#df3260"></path><path fill="#986ff9" d="m39.15 11.024.006 2.155-1.32 2.288c-.325-.22-.504-.639-.506-1.198-.005-1.176.805-2.61 1.82-3.245z" data-original="#986ff9"></path><path fill="#dedffb" d="M47.419 44.118v1.47c0 .3-.19.61-.6.84l-6.4 3.72c-.81.47-2.11.47-2.93 0l-6.45-3.72c-.4-.23-.61-.55-.61-.85l.01-1.47z" data-original="#dedffb"></path><path fill="#f3f1fc" d="M46.816 43.265c.808.466.813 1.223.01 1.69l-6.412 3.725c-.803.467-2.109.467-2.917 0l-6.453-3.725c-.809-.467-.813-1.223-.01-1.69l6.411-3.726c.804-.467 2.11-.467 2.918 0z" data-original="#f3f1fc"></path><path fill="#dba660" d="m43.849 43.028-.89-.07v-1.2l-1.22-.71-1.19.53c-.26-.09-.54-.17-.83-.22l-.16-.83h-1.74l-.17.79c-.34.04-.67.12-.96.22l-1.06-.49-1.23.71v1.2l.01.01-.92.06-.01 1.01v.82l1.37.09-.47.35v.82l1.22.72 1.27-.58c.24.07.47.12.72.15l.19.95h1.74l.21-.99c.21-.04.42-.09.61-.16l1.37.63 1.23-.72v-.82l-.47-.34 1.38-.11v-1.82zm-3.59 1.43c-.88.51-2.31.51-3.19 0-.21-.12-.36-.26-.47-.41.11-.15.27-.29.48-.41.88-.51 2.31-.51 3.19 0 .2.12.36.26.47.4-.11.15-.27.29-.48.42z" data-original="#dba660"></path><path fill="#aa6256" d="m34.396 41.762.004 1.2.83.618-.004-1.2zM41.96 42.494l.004 1.2.997-.733-.004-1.2z" data-original="#aa6256"></path><path fill="#bf7d5a" d="m36.412 43.537.003 1.029c0-.337.221-.674.665-.93.883-.51 2.309-.508 3.185.002.437.254.656.586.657.918l-.003-1.029c0-.332-.22-.664-.656-.918-.877-.51-2.303-.512-3.186-.002-.444.256-.666.593-.665.93z" data-original="#bf7d5a"></path><path fill="#d4d6d6" d="m43.844 44.03.003.823.006-.628-.004-1.2z" data-original="#d4d6d6"></path><path fill="#aa6256" d="m33.48 44.037.003.824 1.437.095-.003-.824zM42.129 44.154l.003.824 1.715-.125-.003-.824z" data-original="#aa6256"></path><path fill="#bf7d5a" d="m41.865 44.507.003 1.2a1.48 1.48 0 0 0 .264-.353l-.003-1.2a1.48 1.48 0 0 1-.264.353zM34.917 44.132l.003 1.2c.088.171.218.328.381.483l-.003-1.2a1.84 1.84 0 0 1-.381-.483zM39.728 45.54l.003.824c.211-.035.418-.09.61-.152l-.003-.824a4.277 4.277 0 0 1-.61.152zM36.862 45.437l.004.824c.238.068.477.12.725.15l-.004-.825a4.676 4.676 0 0 1-.725-.149zM34.376 45.299l.004.824 1.223.71-.004-.823z" data-original="#bf7d5a"></path><path fill="#aa6256" d="m35.6 46.01.003.823 1.263-.572-.004-.824z" data-original="#aa6256"></path><path fill="#bf7d5a" d="m41.706 46.01.004.824 1.23-.711-.003-.824z" data-original="#bf7d5a"></path><path fill="#aa6256" d="m40.338 45.388.003.824 1.369.622-.004-.824zM37.587 45.586l.004.824.186.947-.003-.824zM39.511 46.53l.004.824.216-.99-.003-.824z" data-original="#aa6256"></path><path fill="#dba660" d="m34.376 45.299.922-.684a1.84 1.84 0 0 1-.381-.483l-1.438-.095.006-1.009 1.363-.095c.072-.192.204-.382.378-.553l-.83-.618 1.231-.711 1.06.485c.296-.1.624-.176.957-.217l.173-.792 1.738.003.164.83c.294.052.57.125.832.222l1.183-.531 1.223.71-.997.733c.121.136.205.277.26.418l1.63.114-.006 1.003-1.715.125a1.48 1.48 0 0 1-.264.353l1.072.792-1.23.71-1.37-.62a4.277 4.277 0 0 1-.61.151l-.216.99-1.737.003-.187-.947a4.675 4.675 0 0 1-.725-.149l-1.263.573zm5.88-.845c.883-.51.883-1.335.007-1.845-.877-.51-2.303-.512-3.186-.002-.882.51-.887 1.337-.01 1.847s2.307.51 3.19 0" data-original="#dba660"></path><path fill="#bf7d5a" d="m37.774 46.533.003.824 1.738-.003-.004-.824z" data-original="#bf7d5a"></path></g></svg>